Normalized EMG Linear Envelopes
nRows=65
nColumns=17

endheader
time	        VM	        VL	        RF	       GRA	        TA	   ADDLONG	   SEMIMEM	      BFLH	        GM	        GL	       TFL	   GLUTMAX	   GLUTMED	      PIRI	    OBTINT	        QF	
4.121	  0.000000	  0.000000	  0.331130	  0.273019	  0.093164	  0.000000	  0.252802	  0.051057	  0.000000	  0.380100	  0.000000	  0.030954	  0.095133	  0.060333	  0.052314	  0.042115	
4.1215	  0.000000	  0.000000	  0.331646	  0.272919	  0.094015	  0.000000	  0.250302	  0.051021	  0.000000	  0.374696	  0.000000	  0.031055	  0.094978	  0.060477	  0.052230	  0.042238	
4.122	  0.000000	  0.000000	  0.332147	  0.272803	  0.094890	  0.000000	  0.247828	  0.051001	  0.000000	  0.369286	  0.000000	  0.031165	  0.094834	  0.060621	  0.052139	  0.042359	
4.1225	  0.000000	  0.000000	  0.332634	  0.272671	  0.095789	  0.000000	  0.245379	  0.050994	  0.000000	  0.363872	  0.000000	  0.031282	  0.094701	  0.060767	  0.052041	  0.042479	
4.123	  0.000000	  0.000000	  0.333106	  0.272523	  0.096712	  0.000000	  0.242956	  0.051002	  0.000000	  0.358456	  0.000000	  0.031408	  0.094578	  0.060912	  0.051936	  0.042596	
4.1235	  0.000000	  0.000000	  0.333564	  0.272360	  0.097661	  0.000000	  0.240560	  0.051023	  0.000000	  0.353041	  0.000000	  0.031541	  0.094466	  0.061058	  0.051825	  0.042712	
4.124	  0.000000	  0.000000	  0.334009	  0.272182	  0.098637	  0.000000	  0.238190	  0.051057	  0.000000	  0.347628	  0.000000	  0.031681	  0.094363	  0.061204	  0.051707	  0.042826	
4.1245	  0.000000	  0.000000	  0.334441	  0.271989	  0.099639	  0.000000	  0.235848	  0.051105	  0.000000	  0.342221	  0.000000	  0.031828	  0.094270	  0.061351	  0.051582	  0.042939	
4.125	  0.000000	  0.000000	  0.334859	  0.271783	  0.100669	  0.000000	  0.233533	  0.051165	  0.000000	  0.336821	  0.000000	  0.031982	  0.094185	  0.061497	  0.051450	  0.043049	
4.1255	  0.000000	  0.000000	  0.335264	  0.271563	  0.101727	  0.000000	  0.231246	  0.051237	  0.000000	  0.331431	  0.000000	  0.032143	  0.094108	  0.061643	  0.051311	  0.043157	
4.126	  0.000000	  0.000000	  0.335657	  0.271329	  0.102814	  0.000000	  0.228987	  0.051321	  0.000000	  0.326051	  0.000000	  0.032309	  0.094039	  0.061788	  0.051166	  0.043264	
4.1265	  0.000000	  0.000000	  0.336038	  0.271083	  0.103931	  0.000000	  0.226757	  0.051416	  0.000000	  0.320685	  0.000000	  0.032481	  0.093977	  0.061933	  0.051015	  0.043368	
4.127	  0.000000	  0.000000	  0.336407	  0.270825	  0.105079	  0.000000	  0.224555	  0.051523	  0.000000	  0.315334	  0.000000	  0.032659	  0.093922	  0.062078	  0.050857	  0.043470	
4.1275	  0.000000	  0.000000	  0.336764	  0.270556	  0.106258	  0.000000	  0.222381	  0.051640	  0.000000	  0.310000	  0.000000	  0.032841	  0.093872	  0.062222	  0.050692	  0.043570	
4.128	  0.000000	  0.000000	  0.337112	  0.270276	  0.107469	  0.000000	  0.220235	  0.051768	  0.000000	  0.304685	  0.000000	  0.033029	  0.093829	  0.062366	  0.050522	  0.043668	
4.1285	  0.000000	  0.000000	  0.337450	  0.269985	  0.108712	  0.000000	  0.218118	  0.051905	  0.000000	  0.299390	  0.000000	  0.033221	  0.093791	  0.062508	  0.050345	  0.043763	
4.129	  0.000000	  0.000000	  0.337780	  0.269686	  0.109989	  0.000000	  0.216029	  0.052052	  0.000000	  0.294118	  0.000000	  0.033417	  0.093757	  0.062650	  0.050162	  0.043856	
4.1295	  0.000000	  0.000000	  0.338104	  0.269377	  0.111300	  0.000000	  0.213969	  0.052208	  0.000000	  0.288870	  0.000000	  0.033618	  0.093728	  0.062790	  0.049972	  0.043946	
4.13	  0.000000	  0.000000	  0.338421	  0.269061	  0.112645	  0.000000	  0.211936	  0.052372	  0.000000	  0.283647	  0.000000	  0.033822	  0.093703	  0.062929	  0.049777	  0.044034	
4.1305	  0.000000	  0.000000	  0.338733	  0.268737	  0.114025	  0.000000	  0.209931	  0.052544	  0.000000	  0.278452	  0.000000	  0.034030	  0.093682	  0.063067	  0.049577	  0.044119	
4.131	  0.000000	  0.000000	  0.339042	  0.268406	  0.115440	  0.000000	  0.207954	  0.052723	  0.000000	  0.273286	  0.000000	  0.034241	  0.093663	  0.063202	  0.049370	  0.044201	
4.1315	  0.000000	  0.000000	  0.339349	  0.268069	  0.116892	  0.000000	  0.206004	  0.052910	  0.000000	  0.268150	  0.000000	  0.034454	  0.093647	  0.063337	  0.049158	  0.044280	
4.132	  0.000000	  0.000000	  0.339655	  0.267726	  0.118380	  0.000000	  0.204081	  0.053103	  0.000000	  0.263047	  0.000000	  0.034671	  0.093634	  0.063469	  0.048940	  0.044356	
4.1325	  0.000000	  0.000000	  0.339961	  0.267379	  0.119906	  0.000000	  0.202184	  0.053303	  0.000000	  0.257978	  0.000000	  0.034890	  0.093622	  0.063599	  0.048717	  0.044429	
4.133	  0.000000	  0.000000	  0.340270	  0.267028	  0.121469	  0.000000	  0.200313	  0.053508	  0.000000	  0.252944	  0.000000	  0.035111	  0.093612	  0.063726	  0.048489	  0.044498	
4.1335	  0.000000	  0.000000	  0.340583	  0.266674	  0.123071	  0.000000	  0.198467	  0.053718	  0.000000	  0.247948	  0.000000	  0.035335	  0.093603	  0.063851	  0.048255	  0.044564	
4.134	  0.000000	  0.000000	  0.340902	  0.266318	  0.124711	  0.000000	  0.196646	  0.053934	  0.000000	  0.242989	  0.000000	  0.035560	  0.093594	  0.063974	  0.048016	  0.044627	
4.1345	  0.000000	  0.000000	  0.341229	  0.265960	  0.126390	  0.000000	  0.194850	  0.054153	  0.000000	  0.238070	  0.000000	  0.035787	  0.093585	  0.064093	  0.047773	  0.044686	
4.135	  0.000000	  0.000000	  0.341566	  0.265601	  0.128108	  0.000000	  0.193078	  0.054376	  0.000000	  0.233193	  0.000000	  0.036015	  0.093576	  0.064209	  0.047524	  0.044741	
4.1355	  0.000000	  0.000000	  0.341914	  0.265242	  0.129867	  0.000000	  0.191329	  0.054603	  0.000000	  0.228358	  0.000000	  0.036244	  0.093566	  0.064322	  0.047270	  0.044792	
4.136	  0.000000	  0.000000	  0.342274	  0.264883	  0.131665	  0.000000	  0.189603	  0.054832	  0.000000	  0.223566	  0.000000	  0.036474	  0.093555	  0.064431	  0.047011	  0.044838	
4.1365	  0.000000	  0.000000	  0.342649	  0.264525	  0.133503	  0.000000	  0.187900	  0.055064	  0.000000	  0.218820	  0.000000	  0.036705	  0.093542	  0.064537	  0.046748	  0.044881	
4.137	  0.000000	  0.000000	  0.343040	  0.264169	  0.135383	  0.000000	  0.186218	  0.055298	  0.000000	  0.214119	  0.000000	  0.036937	  0.093526	  0.064638	  0.046480	  0.044920	
4.1375	  0.000000	  0.000000	  0.343447	  0.263815	  0.137303	  0.000000	  0.184557	  0.055533	  0.000000	  0.209465	  0.000000	  0.037169	  0.093508	  0.064736	  0.046208	  0.044954	
4.138	  0.000000	  0.000000	  0.343872	  0.263465	  0.139264	  0.000000	  0.182917	  0.055769	  0.000000	  0.204859	  0.000000	  0.037400	  0.093486	  0.064830	  0.045931	  0.044984	
4.1385	  0.000000	  0.000000	  0.344317	  0.263118	  0.141266	  0.000000	  0.181297	  0.056006	  0.000000	  0.200303	  0.000000	  0.037632	  0.093461	  0.064921	  0.045650	  0.045009	
4.139	  0.000000	  0.000000	  0.344782	  0.262776	  0.143309	  0.000000	  0.179698	  0.056242	  0.000000	  0.195796	  0.000000	  0.037863	  0.093431	  0.065007	  0.045365	  0.045030	
4.1395	  0.000000	  0.000000	  0.345268	  0.262439	  0.145394	  0.000000	  0.178117	  0.056479	  0.000000	  0.191339	  0.000000	  0.038094	  0.093396	  0.065090	  0.045076	  0.045045	
4.14	  0.000000	  0.000000	  0.345776	  0.262107	  0.147520	  0.000000	  0.176557	  0.056715	  0.000000	  0.186935	  0.000000	  0.038323	  0.093357	  0.065169	  0.044783	  0.045056	
4.1405	  0.000000	  0.000000	  0.346308	  0.261782	  0.149688	  0.000000	  0.175015	  0.056950	  0.000000	  0.182582	  0.000000	  0.038552	  0.093312	  0.065244	  0.044486	  0.045062	
4.141	  0.000000	  0.000000	  0.346864	  0.261463	  0.151897	  0.000000	  0.173493	  0.057184	  0.000000	  0.178282	  0.000000	  0.038779	  0.093261	  0.065315	  0.044185	  0.045063	
4.1415	  0.000000	  0.000000	  0.347444	  0.261152	  0.154147	  0.000000	  0.171989	  0.057415	  0.000000	  0.174036	  0.000000	  0.039005	  0.093203	  0.065383	  0.043881	  0.045059	
4.142	  0.000000	  0.000000	  0.348050	  0.260850	  0.156438	  0.000000	  0.170503	  0.057645	  0.000000	  0.169844	  0.000000	  0.039229	  0.093140	  0.065446	  0.043574	  0.045050	
4.1425	  0.000000	  0.000000	  0.348683	  0.260555	  0.158770	  0.000000	  0.169035	  0.057872	  0.000000	  0.165707	  0.000000	  0.039451	  0.093069	  0.065507	  0.043263	  0.045036	
4.143	  0.000000	  0.000000	  0.349342	  0.260270	  0.161143	  0.000000	  0.167585	  0.058096	  0.000000	  0.161625	  0.000000	  0.039671	  0.092991	  0.065563	  0.042949	  0.045016	
4.1435	  0.000000	  0.000000	  0.350030	  0.259995	  0.163557	  0.000000	  0.166151	  0.058316	  0.000000	  0.157599	  0.000000	  0.039889	  0.092907	  0.065616	  0.042633	  0.044992	
4.144	  0.000000	  0.000000	  0.350746	  0.259730	  0.166011	  0.000000	  0.164735	  0.058534	  0.000000	  0.153629	  0.000000	  0.040105	  0.092814	  0.065666	  0.042313	  0.044962	
4.1445	  0.000000	  0.000000	  0.351492	  0.259475	  0.168506	  0.000000	  0.163336	  0.058748	  0.000000	  0.149714	  0.000000	  0.040317	  0.092714	  0.065712	  0.041991	  0.044927	
4.145	  0.000000	  0.000000	  0.352268	  0.259232	  0.171040	  0.000000	  0.161954	  0.058958	  0.000000	  0.145857	  0.000000	  0.040528	  0.092605	  0.065755	  0.041667	  0.044888	
4.1455	  0.000000	  0.000000	  0.353075	  0.259001	  0.173614	  0.000000	  0.160589	  0.059164	  0.000000	  0.142056	  0.000000	  0.040735	  0.092488	  0.065795	  0.041340	  0.044843	
4.146	  0.000000	  0.000000	  0.353914	  0.258782	  0.176228	  0.000000	  0.159240	  0.059367	  0.000000	  0.138313	  0.000000	  0.040939	  0.092362	  0.065831	  0.041011	  0.044793	
4.1465	  0.000000	  0.000000	  0.354785	  0.258575	  0.178880	  0.000000	  0.157907	  0.059565	  0.000000	  0.134627	  0.000000	  0.041140	  0.092228	  0.065865	  0.040680	  0.044739	
4.147	  0.000000	  0.000000	  0.355689	  0.258381	  0.181571	  0.000000	  0.156592	  0.059758	  0.000000	  0.130998	  0.000000	  0.041337	  0.092084	  0.065894	  0.040347	  0.044680	
4.1475	  0.000000	  0.000000	  0.356625	  0.258200	  0.184301	  0.000000	  0.155293	  0.059947	  0.000000	  0.127427	  0.000000	  0.041532	  0.091931	  0.065921	  0.040012	  0.044616	
4.148	  0.000000	  0.000000	  0.357595	  0.258033	  0.187068	  0.000000	  0.154011	  0.060131	  0.000000	  0.123913	  0.000000	  0.041722	  0.091769	  0.065943	  0.039675	  0.044548	
4.1485	  0.000000	  0.000000	  0.358599	  0.257878	  0.189872	  0.000000	  0.152745	  0.060311	  0.000000	  0.120457	  0.000000	  0.041909	  0.091597	  0.065963	  0.039337	  0.044475	
4.149	  0.000000	  0.000000	  0.359637	  0.257738	  0.192714	  0.000000	  0.151496	  0.060485	  0.000000	  0.117059	  0.000000	  0.042093	  0.091414	  0.065979	  0.038997	  0.044397	
4.1495	  0.000000	  0.000000	  0.360710	  0.257611	  0.195592	  0.000000	  0.150264	  0.060655	  0.000000	  0.113719	  0.000000	  0.042272	  0.091222	  0.065991	  0.038656	  0.044316	
4.15	  0.000000	  0.000000	  0.361817	  0.257499	  0.198505	  0.000000	  0.149049	  0.060820	  0.000000	  0.110436	  0.000000	  0.042448	  0.091018	  0.066000	  0.038314	  0.044230	
4.1505	  0.000000	  0.000000	  0.362959	  0.257400	  0.201454	  0.000000	  0.147851	  0.060980	  0.000000	  0.107211	  0.000000	  0.042620	  0.090803	  0.066005	  0.037971	  0.044140	
4.151	  0.000000	  0.000000	  0.364136	  0.257316	  0.204437	  0.000000	  0.146670	  0.061135	  0.000000	  0.104044	  0.000000	  0.042788	  0.090578	  0.066006	  0.037627	  0.044045	
4.1515	  0.000000	  0.000000	  0.365349	  0.257247	  0.207454	  0.000000	  0.145507	  0.061285	  0.000000	  0.100934	  0.000000	  0.042951	  0.090340	  0.066004	  0.037283	  0.043947	
4.152	  0.000000	  0.000000	  0.366597	  0.257192	  0.210503	  0.000000	  0.144361	  0.061431	  0.000000	  0.097881	  0.000000	  0.043111	  0.090091	  0.065998	  0.036937	  0.043846	
4.1525	  0.000000	  0.000000	  0.367880	  0.257152	  0.213585	  0.000000	  0.143233	  0.061571	  0.000000	  0.094886	  0.000000	  0.043266	  0.089829	  0.065989	  0.036591	  0.043740	
4.153	  0.000000	  0.000000	  0.369199	  0.257126	  0.216698	  0.000000	  0.142123	  0.061707	  0.000000	  0.091948	  0.000000	  0.043418	  0.089555	  0.065977	  0.036245	  0.043631	
